# AST/ASF file generated using VICON BodyLanguage
# -----------------------------------------------
:version 1.10
:name VICON
:units
  mass 1.0
  length 0.45
  angle deg
:documentation
   .ast/.asf automatically generated from VICON data using
   VICON BodyBuilder and BodyLanguage model FoxedUp or BRILLIANT.MOD
:root
   order TX TY TZ RX RY RZ
   axis XYZ
   position 0 0 0  
   orientation 0 0 0 
:bonedata
  begin
     id 1 
     name lhipjoint
     direction 0.606768 -0.715223 0.346827 
     length 2.41543 
     axis 0 0 0  XYZ
  end
  begin
     id 2 
     name lfemur
     direction 0.34202 -0.939693 0  
     length 7.2778  
     axis 0 0 20  XYZ
    dof rx ry rz
    limits (-160.0 20.0)
           (-70.0 70.0)
           (-60.0 70.0)
  end
  begin
     id 3 
     name ltibia
     direction 0.34202 -0.939693 0   
     length 7.61811   
     axis 0 0 20   XYZ
    dof rx
    limits (-10.0 170.0)
  end
  begin
     id 4 
     name lfoot
     direction 0.0823924 -0.226371 0.97055   
     length 2.33618   
     axis -90 7.62852e-016 20   XYZ
    dof rx rz
    limits (-45.0 90.0)
           (-70.0 20.0)
  end
  begin
     id 5 
     name ltoes
     direction 1.53554e-011 -4.21934e-011 1   
     length 1.17015   
     axis -90 7.62852e-016 20   XYZ
    dof rx
    limits (-90.0 20.0)
  end
  begin
     id 6 
     name rhipjoint
     direction -0.6077 -0.714582 0.346516   
     length 2.4176  
     axis 0 0 0  XYZ 
  end
  begin
     id 7 
     name rfemur
     direction -0.34202 -0.939693 0   
     length 7.28127   
     axis 0 0 -20   XYZ
    dof rx ry rz
    limits (-160.0 20.0)
           (-70.0 70.0)
           (-70.0 60.0)
  end
  begin
     id 8 
     name rtibia
     direction -0.34202 -0.939693 0   
     length 7.77648   
     axis 0 0 -20   XYZ
    dof rx
    limits (-10.0 170.0)
 end
 begin
     id 9 
     name rfoot
     direction -0.0809463 -0.222398 0.97159   
     length 2.37533  
     axis -90 -7.62852e-016 -20   XYZ
    dof rx rz
    limits (-45.0 90.0)
           (-20.0 70.0)
  end
  begin
     id 10 
     name rtoes
     direction -1.53568e-011 -4.21714e-011 1   
     length 1.18972   
     axis -90 -7.62852e-016 -20   XYZ
    dof rx
    limits (-90.0 20.0)
  end
  begin
     id 11 
     name lowerback
     direction 0.010968 0.991932 -0.126297   
     length 2.21698   
     axis 0 0 0   XYZ
    dof rx ry rz
    limits (-20.0 45.0)
           (-30.0 30.0)
           (-30.0 30.0)
  end
  begin
     id 12 
     name upperback
     direction 0.0167007 0.997503 -0.0686276   
     length 2.22371   
     axis 0 0 0   XYZ
    dof rx ry rz
    limits (-20.0 45.0)
           (-30.0 30.0)
           (-30.0 30.0)
  end
  begin
     id 13 
     name thorax
     direction 0.0111721 0.999885 -0.0102878   
     length 2.25242   
     axis 0 0 0   XYZ
    dof rx ry rz
    limits (-20.0 45.0)
           (-30.0 30.0)
           (-30.0 30.0)
  end
  begin
     id 14 
     name lowerneck
     direction -0.0120265 0.990428 0.137508   
     length 1.57674   
     axis 0 0 0   XYZ
    dof rx ry rz
    limits (-20.0 45.0)
           (-30.0 30.0)
           (-30.0 30.0)
  end
  begin
     id 15 
     name upperneck
     direction 0.0175669 0.998907 0.0433089   
     length 1.5618   
     axis 0 0 0   XYZ
    dof rx ry rz
    limits (-20.0 45.0)
           (-30.0 30.0)
           (-30.0 30.0)
  end
  begin
     id 16
     name head
     direction 0.00754609 0.99997 0.00185367  
     length 1.60579  
     axis 0 0 0   XYZ
    dof rx ry rz
    limits (-20.0 45.0)
           (-30.0 30.0)
           (-30.0 30.0)
  end
  begin
     id 17 
     name lclavicle
     direction 0.885866 0.429166 -0.176231  
     length 3.44967  
     axis 0 0 0   XYZ
    dof ry rz
    limits (-20.0 10.0)
           (0.0 20.0)
  end
  begin
     id 18 
     name lhumerus
     direction 1 -4.48973e-011 -1.90255e-027   
     length 5.20607   
     axis 180 -30 -90   XYZ
    dof rx ry rz
    limits (-60.0 90.0)
           (-90.0 90.0)
           (-90.0 90.0)
  end
  begin
     id 19
     name lradius
     direction 1 -4.48956e-011 9.87925e-027   
     length 3.39961   
     axis 180 -30 -90   XYZ
    dof rx
    limits (-10.0 170.0)
  end
  begin
     id 20
     name lwrist
     direction 1 -4.48985e-011 1.73247e-026   
     length 1.6998   
     axis -9.60847e-015 90 90   XYZ
    dof ry
    limits (-180.0 0.0)
 end
  begin
     id 21 
     name lhand
     direction 1 -4.48798e-011 3.46119e-026   
     length 0.519693   
     axis -2.21073e-014 90 90   XYZ
    dof rx rz
    limits (-90.0 90.0)
           (-45.0 45.0)
  end
  begin
     id 22 
     name lfingers
     direction 1 -4.48938e-011 6.92797e-026   
     length 0.41899   
     axis -4.42155e-014 90 90   XYZ
    dof rx
    limits (0.0 90.0)
  end
  begin
     id 23
     name lthumb
     direction 0.707107 -6.34952e-011 0.707107   
     length 0.601588   
     axis -90 45 6.0103e-014   XYZ
    dof rx rz
    limits (-45.0 45.0)
           (-45.0 45.0)
  end
  begin
     id 24 
     name rclavicle
     direction -0.866736 0.456792 -0.200276   
     length 3.45032  
     axis 0 0 0   XYZ 
    dof ry rz
    limits (-10.0 20.0)
           (-20.0 0.0)
  end
  begin
     id 25 
     name rhumerus
     direction -1 -4.4897e-011 8.65094e-028  
     length 5.32214   
     axis 180 30 90   XYZ
    dof rx ry rz
    limits (-90.0 60.0)
           (-90.0 90.0)
           (-90.0 90.0)
  end
  begin
     id 26 
     name rradius
     direction -1 -4.48987e-011 1.08427e-026   
     length 3.51208   
     axis 180 30 90   XYZ
    dof rx
    limits (-10.0 170.0)
  end
  begin
     id 27 
     name rwrist
     direction -1 -4.48961e-011 1.73222e-026   
     length 1.75604   
     axis -9.60847e-015 -90 -90   XYZ
    dof ry
    limits (-180.0 0.0)
  end
  begin
     id 28
     name rhand
     direction -1 -4.48895e-011 3.46314e-026   
     length 0.586681   
     axis -2.21073e-014 -90 -90   XYZ
    dof rx rz
    limits (-90.0 90.0)
           (-45.0 45.0)
  end
  begin
     id 29
     name rfingers
     direction -1 -4.48968e-011 6.92916e-026   
     length 0.472997   
     axis -4.42155e-014 -90 -90   XYZ
    dof rx
    limits (0.0 90.0)
  end
  begin
     id 30
     name rthumb
     direction -0.707107 -6.34848e-011 0.707107   
     length 0.679133   
     axis -90 -45 -6.0103e-014   XYZ
    dof rx rz
    limits (-45.0 45.0)
           (-45.0 45.0)
  end
:hierarchy
  begin
    root lhipjoint rhipjoint lowerback
    lhipjoint lfemur
    lfemur ltibia
    ltibia lfoot
    lfoot ltoes
    rhipjoint rfemur
    rfemur rtibia
    rtibia rfoot
    rfoot rtoes
    lowerback upperback
    upperback thorax
    thorax lowerneck lclavicle rclavicle
    lowerneck upperneck
    upperneck head
    lclavicle lhumerus
    lhumerus lradius
    lradius lwrist
    lwrist lhand lthumb
    lhand lfingers
    rclavicle rhumerus
    rhumerus rradius
    rradius rwrist
    rwrist rhand rthumb
    rhand rfingers
  end

#!OML:ASF H:\Dans Jumps\Project 1\Capture day 1\Session 1\subject.ASF
:FULLY-SPECIFIED
:DEGREES
53
root 0.490779 17.5408 -14.1025 6.17042 -1.24852 -1.67239
lowerback -2.07637 -0.273828 0.0425417
upperback 3.2293 -0.432014 1.58682
thorax 4.50631 -0.24335 1.58889
lowerneck -13.8095 -0.542571 -2.87852
upperneck 27.8627 -0.841973 2.76848
head 11.3473 -0.344642 1.39445
rclavicle -1.83876e-015 -4.37326e-015
rhumerus -22.651 -18.8518 -79.6101
rradius 22.3018
rwrist 36.1319
rhand -17.361 -26.0444
rfingers 7.12502
rthumb 8.88704 -55.8373
lclavicle -1.83876e-015 -4.37326e-015
lhumerus -20.2061 6.15483 85.0005
lradius 16.7706
lwrist -2.76428
lhand -23.787 -2.82693
lfingers 7.12502
lthumb 2.68308 27.1359
rfemur -12.939 -2.08378 19.3222
rtibia 21.0714
rfoot -13.3626 -2.96098
rtoes 6.70939
lfemur -12.4416 7.36222 -17.8374
ltibia 19.8643
lfoot -11.3629 5.13929
ltoes -0.462684
54
root 0.48975 17.5406 -14.1032 6.17278 -1.23812 -1.66498
lowerback -2.06799 -0.27371 0.0356638
upperback 3.23027 -0.431428 1.58526
thorax 4.50258 -0.243255 1.5912
lowerneck -13.8085 -0.535688 -2.87898
upperneck 27.8806 -0.830235 2.76166
head 11.3536 -0.340255 1.39386
rclavicle -1.49089e-015 1.03368e-014
rhumerus -22.6546 -18.8517 -79.6177
rradius 22.3033
rwrist 36.1303
rhand -17.3645 -26.0374
rfingers 7.12502
rthumb 8.88364 -55.8304
lclavicle -1.49089e-015 1.03368e-014
lhumerus -20.2035 6.15614 85.0024
lradius 16.7736
lwrist -2.75707
lhand -23.7916 -2.80978
lfingers 7.12502
lthumb 2.67861 27.1531
rfemur -12.9531 -2.08994 19.3188
rtibia 21.0908
rfoot -13.3701 -2.96892
rtoes 6.69435
lfemur -12.45 7.35971 -17.8422
ltibia 19.8677
lfoot -11.3625 5.13059
ltoes -0.453734
55
root 0.488731 17.5404 -14.104 6.17445 -1.2257 -1.65887
lowerback -2.05807 -0.274274 0.0299414
upperback 3.23196 -0.431816 1.58413
thorax 4.49874 -0.243614 1.59325
lowerneck -13.8038 -0.527089 -2.87369
upperneck 27.8948 -0.816173 2.74999
head 11.3575 -0.334826 1.39075
rclavicle -9.0447e-015 -3.37934e-015
rhumerus -22.6564 -18.8495 -79.6259
rradius 22.3048
rwrist 36.1263
rhand -17.3681 -26.0264
rfingers 7.12502
rthumb 8.88013 -55.8195
lclavicle -9.0447e-015 -3.37934e-015
lhumerus -20.1986 6.15508 85.005
lradius 16.776
lwrist -2.74856
lhand -23.7893 -2.78898
lfingers 7.12502
lthumb 2.6808 27.1739
rfemur -12.9674 -2.09536 19.317
rtibia 21.1117
rfoot -13.3784 -2.97932
rtoes 6.68516
lfemur -12.4588 7.35629 -17.8451
ltibia 19.8709
lfoot -11.3608 5.12074
ltoes -0.44621
56
root 0.487814 17.5402 -14.1049 6.1757 -1.21387 -1.64921
lowerback -2.04747 -0.275146 0.0215012
upperback 3.23332 -0.43244 1.58179
thorax 4.49419 -0.244157 1.59555
lowerneck -13.7952 -0.516526 -2.86169
upperneck 27.9067 -0.799731 2.73348
head 11.3597 -0.328236 1.38499
rclavicle 2.78299e-015 -3.57812e-015
rhumerus -22.6567 -18.8486 -79.6341
rradius 22.3043
rwrist 36.1216
rhand -17.3748 -26.009
rfingers 7.12502
rthumb 8.87369 -55.8025
lclavicle 2.78299e-015 -3.57812e-015
lhumerus -20.1941 6.14838 85.0092
lradius 16.778
lwrist -2.73435
lhand -23.7832 -2.77433
lfingers 7.12502
lthumb 2.68676 27.1885
rfemur -12.9823 -2.1044 19.3108
rtibia 21.1346
rfoot -13.3882 -2.9848
rtoes 6.68302
lfemur -12.4675 7.35157 -17.8524
ltibia 19.8736
lfoot -11.3584 5.11274
ltoes -0.443394
57
root 0.486956 17.54 -14.1059 6.17676 -1.20234 -1.6425
lowerback -2.03575 -0.275859 0.0172525
upperback 3.23464 -0.433032 1.57969
thorax 4.48893 -0.244542 1.59576
lowerneck -13.7866 -0.504848 -2.84385
upperneck 27.9196 -0.781767 2.71192
head 11.3621 -0.32097 1.37658
rclavicle -4.47266e-015 6.95746e-015
rhumerus -22.6563 -18.8463 -79.6431
rradius 22.3042
rwrist 36.1151
rhand -17.382 -25.995
rfingers 7.12502
rthumb 8.86671 -55.7887
lclavicle -4.47266e-015 6.95746e-015
lhumerus -20.1899 6.14099 85.0139
lradius 16.7794
lwrist -2.72045
lhand -23.7791 -2.76062
lfingers 7.12502
lthumb 2.69069 27.2022
rfemur -12.9977 -2.11312 19.3077
rtibia 21.1583
rfoot -13.3978 -2.9895
rtoes 6.68105
lfemur -12.4772 7.34737 -17.8567
ltibia 19.8774
lfoot -11.3556 5.10578
ltoes -0.452871
58
root 0.486209 17.5398 -14.1069 6.1778 -1.19246 -1.63569
lowerback -2.02388 -0.276076 0.0152905
upperback 3.23554 -0.433004 1.5764
thorax 4.48309 -0.244515 1.59349
lowerneck -13.7762 -0.491906 -2.82301
upperneck 27.9316 -0.762405 2.68893
head 11.3638 -0.312942 1.3673
rclavicle -5.46658e-015 1.31198e-014
rhumerus -22.6551 -18.8503 -79.6516
rradius 22.3014
rwrist 36.1132
rhand -17.3894 -25.9868
rfingers 7.12502
rthumb 8.85962 -55.7808
lclavicle -5.46658e-015 1.31198e-014
lhumerus -20.1888 6.12788 85.0191
lradius 16.7829
lwrist -2.70137
lhand -23.7717 -2.74675
lfingers 7.12502
lthumb 2.69786 27.2159
rfemur -13.0135 -2.12221 19.3035
rtibia 21.1823
rfoot -13.407 -2.99064
rtoes 6.69249
lfemur -12.4875 7.34361 -17.8618
ltibia 19.883
lfoot -11.3528 5.10142
ltoes -0.468037
59
root 0.485543 17.5395 -14.108 6.18013 -1.18346 -1.63115
lowerback -2.01391 -0.275889 0.017218
upperback 3.23764 -0.43262 1.57272
thorax 4.47955 -0.244184 1.58866
lowerneck -13.7726 -0.478564 -2.79888
upperneck 27.9482 -0.742589 2.6638
head 11.3686 -0.304601 1.3568
rclavicle -3.42904e-015 3.57812e-015
rhumerus -22.65 -18.8545 -79.6621
rradius 22.2981
rwrist 36.112
rhand -17.3923 -25.988
rfingers 7.12502
rthumb 8.85683 -55.7822
lclavicle -3.42904e-015 3.57812e-015
lhumerus -20.1844 6.1155 85.0241
lradius 16.7866
lwrist -2.68436
lhand -23.7584 -2.7284
lfingers 7.12502
lthumb 2.71071 27.2341
rfemur -13.0305 -2.12986 19.3016
rtibia 21.2046
rfoot -13.4126 -2.99186
rtoes 6.70175
lfemur -12.5013 7.34015 -17.8651
ltibia 19.8921
lfoot -11.3513 5.0978
ltoes -0.485955
60
root 0.484901 17.5393 -14.1091 6.18271 -1.17594 -1.63011
lowerback -2.00433 -0.275222 0.0223496
upperback 3.24064 -0.431796 1.57028
thorax 4.47714 -0.243557 1.58334
lowerneck -13.7772 -0.466174 -2.7772
upperneck 27.9703 -0.723398 2.63881
head 11.3772 -0.296753 1.34678
rclavicle -1.63997e-015 -7.7526e-015
rhumerus -22.6415 -18.8602 -79.6718
rradius 22.2921
rwrist 36.1125
rhand -17.4014 -25.9847
rfingers 7.12502
rthumb 8.84797 -55.7792
lclavicle -1.63997e-015 -7.7526e-015
lhumerus -20.1793 6.10764 85.0292
lradius 16.7915
lwrist -2.67252
lhand -23.7431 -2.71249
lfingers 7.12502
lthumb 2.72548 27.2498
rfemur -13.0473 -2.13369 19.3033
rtibia 21.2251
rfoot -13.4156 -2.99464
rtoes 6.70631
lfemur -12.5168 7.33867 -17.8649
ltibia 19.9043
lfoot -11.3507 5.0946
ltoes -0.506291
61
root 0.484333 17.539 -14.1102 6.18508 -1.16829 -1.63039
lowerback -1.99742 -0.274749 0.029685
upperback 3.24688 -0.431397 1.56787
thorax 4.47961 -0.243095 1.57678
lowerneck -13.79 -0.45511 -2.76103
upperneck 27.9943 -0.70551 2.61745
head 11.3883 -0.289587 1.3389
rclavicle -4.52235e-015 4.17448e-015
rhumerus -22.6255 -18.8676 -79.6832
rradius 22.284
rwrist 36.1142
rhand -17.4065 -25.985
rfingers 7.12502
rthumb 8.84305 -55.7797
lclavicle -4.52235e-015 4.17448e-015
lhumerus -20.1676 6.10118 85.0349
lradius 16.7959
lwrist -2.66426
lhand -23.7262 -2.69316
lfingers 7.12502
lthumb 2.74179 27.269
rfemur -13.0628 -2.13735 19.3063
rtibia 21.243
rfoot -13.4167 -2.99834
rtoes 6.70535
lfemur -12.5334 7.33779 -17.8635
ltibia 19.92
lfoot -11.3525 5.09069
ltoes -0.522217
62
root 0.483768 17.5387 -14.1114 6.18614 -1.16074 -1.63068
lowerback -1.99013 -0.274778 0.0360331
upperback 3.25495 -0.431672 1.56599
thorax 4.48381 -0.243025 1.57129
lowerneck -13.8074 -0.444415 -2.74288
upperneck 28.019 -0.687694 2.59312
head 11.4006 -0.282595 1.3296
rclavicle -4.96962e-017 4.96962e-015
rhumerus -22.6066 -18.8711 -79.6961
rradius 22.277
rwrist 36.1114
rhand -17.4146 -25.9794
rfingers 7.12502
rthumb 8.83526 -55.7745
lclavicle -4.96962e-017 4.96962e-015
lhumerus -20.1526 6.10008 85.0406
lradius 16.8
lwrist -2.66215
lhand -23.7119 -2.68543
lfingers 7.12502
lthumb 2.75559 27.2765
rfemur -13.0772 -2.1411 19.31
rtibia 21.259
rfoot -13.4156 -3.00597
rtoes 6.67522
lfemur -12.5491 7.33725 -17.8618
ltibia 19.9374
lfoot -11.356 5.08503
ltoes -0.52777
63
root 0.483205 17.5384 -14.1126 6.18608 -1.15147 -1.63179
lowerback -1.98251 -0.274763 0.0434922
upperback 3.2647 -0.431945 1.5639
thorax 4.48956 -0.242923 1.56497
lowerneck -13.8247 -0.43411 -2.72498
upperneck 28.0392 -0.670672 2.57011
head 11.4112 -0.275812 1.32067
rclavicle -8.44835e-015 1.49089e-014
rhumerus -22.5868 -18.8755 -79.7095
rradius 22.2729
rwrist 36.1067
rhand -17.4199 -25.9713
rfingers 7.12502
rthumb 8.83016 -55.7666
lclavicle -8.44835e-015 1.49089e-014
lhumerus -20.1344 6.09492 85.0474
lradius 16.8046
lwrist -2.66004
lhand -23.7071 -2.68423
lfingers 7.12502
lthumb 2.76023 27.2777
rfemur -13.0905 -2.14494 19.3154
rtibia 21.2734
rfoot -13.4126 -3.01992
rtoes 6.61517
lfemur -12.5643 7.33603 -17.8587
ltibia 19.9553
lfoot -11.3601 5.07706
ltoes -0.523314
